HIERARCHY
ROOT pelvis
{
  OFFSET 0 100 0
  CHANNELS 6 Xposition Yposition Zposition Zrotation Xrotation Yrotation
  JOINT pelvis_right_femur
  {
    OFFSET -10.78128 -3.44521 -0.5502486
    CHANNELS 3 Zrotation Xrotation Yrotation
    JOINT right_femur_tibia
    {
      OFFSET -0.8047443 -44.0398 -0.1307829
      CHANNELS 3 Zrotation Xrotation Yrotation
      JOINT right_tibia_foot
      {
        OFFSET 3.006224 -47.83518 -5
        CHANNELS 3 Zrotation Xrotation Yrotation
        End Site
        {
          OFFSET 0 -5 15
        }
      }
    }
  }
  JOINT pelvis_left_femur
  {
    OFFSET 10.78128 -3.44521 -0.5502486
    CHANNELS 3 Zrotation Xrotation Yrotation
    JOINT left_femur_tibia
    {
      OFFSET 0.8047443 -44.0398 -0.1307829
      CHANNELS 3 Zrotation Xrotation Yrotation
      JOINT left_tibia_foot
      {
        OFFSET -4.370144 -48.10324 -4.275266
        CHANNELS 3 Zrotation Xrotation Yrotation
        End Site
        {
          OFFSET 0 -5 15
        }
      }
    }
  }
  JOINT pelvis_spine1
  {
    OFFSET 0 6.468898 -3.129235
    CHANNELS 3 Zrotation Xrotation Yrotation
    JOINT spine1
    {
      OFFSET 0 23.15396 4.99043
      CHANNELS 3 Zrotation Xrotation Yrotation
      JOINT spine2
      {
        OFFSET 0 20.79997 -5.064912
        CHANNELS 3 Zrotation Xrotation Yrotation
        JOINT neck
        {
          OFFSET 0 14.38658 9.616178
          CHANNELS 3 Zrotation Xrotation Yrotation
          End Site
          {
            OFFSET 0 20 0
          }
        }
      }
      JOINT right_manubrium
      {
        OFFSET -5.722621 16.35077 3.967754
        CHANNELS 3 Zrotation Xrotation Yrotation
        JOINT right_clavicle
        {
          OFFSET -13.16364 1.694482 -4.693211
          CHANNELS 3 Zrotation Xrotation Yrotation
          JOINT right_humerus
          {
            OFFSET -28.5034 -0.3100689 -2.792744
            CHANNELS 3 Zrotation Xrotation Yrotation
            JOINT right_radius
            {
              OFFSET -25.15693 0.02248979 -1.271978
              CHANNELS 3 Zrotation Xrotation Yrotation
              End Site
              {
                OFFSET -15 0 0
              }
            }
          }
        }
      }
      JOINT left_manubrium
      {
        OFFSET 5.722621 16.35077 3.967754
        CHANNELS 3 Zrotation Xrotation Yrotation
        JOINT left_clavicle
        {
          OFFSET 13.16364 1.694482 -4.693211
          CHANNELS 3 Zrotation Xrotation Yrotation
          JOINT left_humerus
          {
            OFFSET 29.39168 -1.063119 -2.237045
            CHANNELS 3 Zrotation Xrotation Yrotation
            JOINT left_radius
            {
              OFFSET 24.59957 -0.9528479 0.9047498
              CHANNELS 3 Zrotation Xrotation Yrotation
              End Site
              {
                OFFSET 15 -0 -0
              }
            }
          }
        }
      }
    }
  }
}
MOTION
Frames: 15
Frame Time: 0.0416666666667
0 103.5113 0 0.7191298 -1.51587 0.1314993 3.774789 -15.01295 8.379241 1.453739e-05 36.41119 -8.296862e-06 -7.464134 -18.20103 -2.965978 -6.960311 5.885469 -22.70205 -1.913502e-05 5.893989 3.4579e-06 7.169699 -17.74832 26.06506 -3.614079 -2.232445 4.542626 2.221798 8.809219 -7.176257 1.132091 22.64119 7.040965 3.128817 -23.76243 9.168194 5.741419 -20.32922 11.61011 84.57443 35.47123 -16.92135 3.237031e-08 1.828869e-06 17.69085 -6.831813 8.098142 4.650587 5.199217 -18.87208 -1.794446 -95.67729 30.42312 24.52901 -3.751211e-06 1.469086e-07 -15.15046 3.411262 17.49065 9.736716
0.3773622 103.4283 1.011955 0.678733 -1.398182 0.3358186 3.843033 -16.66093 8.5918 1.460301e-05 38.28853 -8.955442e-06 -7.097315 -17.12391 -3.245613 -6.953037 7.76239 -22.84733 -1.867843e-05 5.681554 2.283545e-06 7.045401 -18.1654 25.63702 -3.616691 -2.345358 4.349414 2.273956 8.925274 -7.451111 1.119944 22.41894 7.122738 3.171667 -23.87761 9.225023 5.966914 -20.15919 11.6308 85.22484 35.54708 -17.76624 -3.013902e-07 1.366691e-06 17.46126 -6.774273 8.368656 4.552949 5.165971 -18.99394 -1.916387 -95.44952 30.41126 24.23913 -3.835856e-06 -7.418434e-07 -15.55579 3.250796 17.21213 9.99727
0.7532329 103.4176 2.212303 0.5820229 -1.078964 0.615654 3.992467 -18.55654 8.594677 1.370009e-05 38.7085 -8.783751e-06 -6.855356 -15.96312 -3.399306 -6.85655 9.586364 -22.78179 -1.742981e-05 5.466599 1.488905e-06 6.780129 -18.62793 24.98528 -3.570447 -2.441827 4.134358 2.375755 8.994411 -7.756127 1.071773 22.16483 7.24905 3.263035 -24.08496 9.254008 6.137493 -19.93474 11.64428 85.90547 35.68609 -18.71426 -5.327501e-07 1.067368e-06 17.00518 -6.802811 8.649254 4.529541 5.221323 -19.26296 -2.034499 -95.0531 30.32322 23.72057 -3.685589e-06 -1.266782e-06 -16.32882 3.236808 16.92107 10.08574
1.113449 103.4057 3.652892 0.4407934 -0.558287 0.9479767 4.189216 -20.5596 8.347831 1.178414e-05 37.40282 -7.675987e-06 -6.772069 -14.81971 -3.375039 -6.694363 11.14241 -22.47993 -1.553596e-05 5.227433 1.247549e-06 6.413099 -19.11458 24.16461 -3.488311 -2.509608 3.923634 2.522193 9.008244 -8.067023 0.9779963 21.89996 7.426017 3.410326 -24.3728 9.244437 6.240379 -19.66669 11.65584 86.52882 35.9118 -19.69014 -5.875241e-07 9.566015e-07 16.32166 -6.941743 8.904712 4.599622 5.378702 -19.68841 -2.13947 -94.46855 30.15136 22.95979 -3.296164e-06 -1.298651e-06 -17.48786 3.401579 16.64007 9.955647
1.445543 103.3308 5.414602 0.2533603 0.1085189 1.316951 4.412116 -22.65893 7.88099 9.139488e-06 34.67232 -5.964634e-06 -6.79789 -13.61761 -3.22961 -6.475231 12.51962 -21.93385 -1.29304e-05 5.12 1.432084e-06 5.845242 -19.62014 23.14254 -3.365595 -2.535009 3.707118 2.698142 8.964788 -8.378739 0.8575981 21.64806 7.64415 3.607156 -24.71063 9.207007 6.277503 -19.32857 11.65608 87.21065 36.17249 -20.73347 -4.966668e-07 1.028688e-06 15.41543 -7.222906 9.152257 4.765629 5.629041 -20.24447 -2.234163 -93.77616 29.92016 21.95734 -2.676649e-06 -9.386487e-07 -18.98749 3.672829 16.32493 9.70452
1.743211 103.1395 7.514125 0.03974966 0.8599502 1.700931 4.627113 -24.58305 7.261704 6.258002e-06 30.85494 -4.050169e-06 -6.942694 -12.53018 -2.955956 -6.234244 13.52058 -21.22768 -1.000017e-05 5.121226 2.01476e-06 5.196105 -20.05184 22.05137 -3.220774 -2.526152 3.515459 2.886125 8.870547 -8.651574 0.7176698 21.40763 7.875005 3.827561 -25.05884 9.137543 6.257406 -18.96389 11.64533 87.73473 36.47125 -21.66564 -2.555822e-07 1.258028e-06 14.40277 -7.565419 9.348757 4.989163 5.928884 -20.84521 -2.300069 -92.97527 29.64407 20.8454 -1.911332e-06 -2.458955e-07 -20.61324 4.033192 16.0192 9.331392
2.005114 102.8258 10.01998 -0.234592 1.651395 2.091692 4.880826 -26.36679 6.601981 3.365591e-06 26.60723 -2.332599e-06 -7.153052 -11.41942 -2.657457 -5.946194 14.41104 -20.41484 -6.391575e-06 5.484382 2.619133e-06 4.311182 -20.34754 20.79203 -3.019437 -2.489616 3.31196 3.080224 8.721741 -8.893232 0.594498 21.16766 8.087239 4.047119 -25.41677 9.060752 6.198743 -18.54924 11.60291 88.24746 36.74047 -22.53973 7.842692e-09 1.665802e-06 13.33323 -7.914971 9.545193 5.235766 6.231434 -21.40697 -2.331607 -92.21576 29.36695 19.74433 -1.03026e-06 5.099136e-07 -22.17591 4.363003 15.67247 8.995086
2.236077 102.4116 12.9468 -0.5252851 2.328717 2.48032 5.143248 -27.75648 6.025008 8.691304e-07 22.73706 -1.073955e-06 -7.369629 -10.38871 -2.413769 -5.655402 15.12877 -19.6061 -2.6413e-06 6.346212 3.021162e-06 3.28321 -20.42926 19.52434 -2.786616 -2.426308 3.119395 3.244067 8.546962 -9.066671 0.5141368 20.95943 8.240546 4.227428 -25.69936 8.983612 6.114969 -18.11235 11.52823 88.66297 36.91196 -23.23881 2.488621e-07 2.168632e-06 12.3343 -8.215708 9.717271 5.44829 6.476707 -21.82975 -2.334229 -91.55235 29.14105 18.76852 -2.015685e-07 1.162297e-06 -23.42529 4.586018 15.30859 8.77619
2.459395 101.9972 16.39115 -0.8852572 2.874512 2.875134 5.501346 -28.57407 5.673749 -1.440689e-06 20.07878 -3.881152e-07 -7.540211 -9.221239 -2.28984 -5.328851 15.77198 -18.83816 1.848622e-06 8.068475 2.655039e-06 1.93082 -20.10979 18.11115 -2.467134 -2.362131 2.92335 3.367198 8.36435 -9.16876 0.5072046 20.73698 8.301958 4.349885 -25.94514 8.920121 6.045251 -17.67782 11.41568 89.07357 36.94599 -23.73216 3.396861e-07 2.805467e-06 11.53984 -8.429182 9.952479 5.634256 6.579261 -21.98886 -2.300111 -91.22153 28.99127 18.23421 4.856376e-07 1.402615e-06 -24.03423 4.549899 14.85273 8.88392
2.70253 101.7214 20.37762 -1.268083 3.206177 3.273015 5.931488 -28.56382 5.581034 -3.565307e-06 19.08109 -1.426204e-07 -7.707967 -7.92132 -2.247461 -5.024046 16.13222 -18.16842 6.538406e-06 10.94948 1.425802e-06 0.4531435 -19.26219 16.71863 -2.09095 -2.312615 2.763321 3.428725 8.230976 -9.168229 0.5607117 20.50504 8.269273 4.415424 -26.12168 8.851228 6.014087 -17.26487 11.29214 89.27695 36.8732 -23.91054 3.811356e-07 3.47634e-06 10.94678 -8.5132 10.19616 5.752264 6.482976 -21.85643 -2.251364 -91.12074 28.90399 18.20277 8.54913e-07 1.26389e-06 -23.86961 4.305619 14.35952 9.245721
2.982953 101.71 24.88814 -1.637313 3.269892 3.650153 6.445812 -27.72944 5.740312 -5.458151e-06 19.37494 -1.754189e-07 -7.885335 -6.682081 -2.303477 -4.734184 16.09986 -17.56729 1.130284e-05 15.18572 -7.513897e-07 -1.045134 -17.88885 15.46344 -1.664229 -2.270364 2.674012 3.430453 8.183588 -9.074221 0.6684686 20.29388 8.132488 4.415808 -26.1879 8.758999 6.001612 -16.89279 11.18297 89.29982 36.66685 -23.8355 3.962959e-07 4.117829e-06 10.53635 -8.481107 10.44568 5.769926 6.205359 -21.50795 -2.209764 -91.19445 28.85084 18.57819 9.075671e-07 8.300699e-07 -23.09125 3.911769 13.86848 9.780059
3.300344 102.0455 29.86276 -1.94407 3.058955 3.94916 7.040357 -25.94842 6.086264 -7.17182e-06 19.99007 -2.617592e-07 -8.085417 -5.847524 -2.418963 -4.439215 15.25787 -16.90593 1.619846e-05 21.04662 -3.88951e-06 -2.497924 -15.99096 14.47486 -1.198599 -2.206022 2.740158 3.378113 8.25639 -8.889334 0.803883 20.16044 7.905106 4.369768 -26.11507 8.608202 5.99498 -16.60322 11.14087 89.19641 36.37827 -23.56902 5.090078e-07 4.701921e-06 10.30572 -8.429734 10.70561 5.71355 5.802462 -21.07544 -2.182572 -91.4648 28.78725 19.25957 6.953547e-07 3.466712e-07 -22.00724 3.434631 13.39296 10.40335
3.621032 102.7718 35.10437 -2.070644 2.511695 4.08618 7.60421 -23.29597 6.531217 -8.461533e-06 20.37154 -2.185753e-07 -8.320841 -5.709851 -2.561037 -4.204146 13.38346 -16.17124 2.04261e-05 28.59344 -7.70364e-06 -3.650523 -13.73441 14.00805 -0.7835796 -2.086752 3.022418 3.266353 8.486817 -8.614677 0.9274051 20.18454 7.627735 4.307287 -25.81685 8.372399 6.004831 -16.3653 11.21007 88.8744 36.09183 -23.18792 9.337335e-07 5.07313e-06 10.11143 -8.394988 10.87613 5.534323 5.335884 -20.70401 -2.200809 -91.67996 28.70627 19.90323 1.372862e-07 1.188097e-07 -20.98364 3.01595 13.00816 10.91934
3.925457 103.8247 40.43018 -1.937899 1.713611 4.016308 7.865855 -19.5323 6.819693 -9.381876e-06 20.18006 1.41936e-07 -8.42047 -6.254307 -2.587189 -4.058653 9.958559 -15.23322 2.327023e-05 36.3214 -1.126199e-05 -4.476327 -11.48924 14.16457 -0.5326211 -1.873136 3.586228 3.046132 8.840924 -8.214269 0.9902245 20.4363 7.399877 4.297767 -25.30336 8.056366 6.026035 -16.30319 11.41673 88.38861 35.9069 -22.51794 1.79917e-06 5.166518e-06 10.16482 -8.782792 10.95048 5.54041 4.928305 -20.45837 -2.251426 -92.07452 28.58721 20.55276 -6.604474e-07 4.09239e-07 -20.20752 2.606786 12.61985 11.42538
4.185239 105.0812 45.62735 -1.5404 0.7603804 3.733494 7.749714 -15.13776 6.870605 -9.840855e-06 19.33819 8.542291e-07 -8.349791 -7.316876 -2.453276 -4.000949 5.359762 -14.16617 2.356099e-05 43.11073 -1.327808e-05 -4.86872 -9.591624 14.88241 -0.5066761 -1.581807 4.360046 2.728478 9.26785 -7.721759 0.968733 20.8655 7.266501 4.3573 -24.58707 7.676319 6.044071 -16.3789 11.72259 87.61072 35.84178 -21.57057 3.076252e-06 4.913573e-06 10.37153 -9.603582 10.87649 5.752989 4.644937 -20.3807 -2.345661 -92.34175 28.41821 20.94701 -1.609845e-06 1.278845e-06 -19.85132 2.291393 12.24892 11.79972
